<svg class="jobsheets-button-general" viewBox="0 0 21 22" xmlns="http://www.w3.org/2000/svg">
    <path class="jobsheets-inferior" d="M12.9417 19.6659H8.05933C6.98521 19.6659 6.09011 19.5548 5.33335 19.3155C5.05668 19.23 4.87766 18.9479 4.89394 18.6488C5.09737 16.0931 7.56296 14.0843 10.5005 14.0843C13.438 14.0843 15.8955 16.0845 16.107 18.6488C16.1315 18.9565 15.9524 19.23 15.6676 19.3155C14.9109 19.5548 14.0158 19.6659 12.9417 19.6659ZM6.20404 18.2214C6.74109 18.3325 7.35139 18.3838 8.05933 18.3838H12.9417C13.6496 18.3838 14.2599 18.3325 14.797 18.2214C14.3657 16.5803 12.5836 15.3664 10.5005 15.3664C8.41737 15.3664 6.63531 16.5803 6.20404 18.2214Z"/>
    <path class="jobsheets-external-border" d="M5.50372 18.7002C3.29039 18.0421 2.36274 16.2727 2.36274 13.0417V7.91318C2.36274 3.63939 3.99019 1.92987 8.05882 1.92987H12.9412C17.0098 1.92987 18.6372 3.63939 18.6372 7.91318V13.0417C18.6372 16.2727 17.7096 18.0421 15.4963 18.7002"/>
</svg>