<?xml version="1.0" encoding="utf-8"?><!-- Uploaded to: SVG Repo, www.svgrepo.com, Generator: SVG Repo Mixer Tools -->
<svg width="800px" height="800px" viewBox="0 0 24 24" fill="none" xmlns="http://www.w3.org/2000/svg">
<path fill-rule="evenodd" clip-rule="evenodd" d="M13.9999 3C13.4476 3 12.9999 3.44771 12.9999 3.99999C12.9999 4.55227 13.4476 4.99998 13.9999 4.99998H15.4088C15.8745 4.99998 16.2785 5.32139 16.3832 5.77511L16.6978 7.13841L9.60395 7.92662C9.24956 7.96599 8.89098 7.94187 8.54506 7.85539L3.32411 6.55016C1.63563 6.12804 0 7.40509 0 9.14554C0 10.407 0.881233 11.4971 2.11472 11.7614L6.8505 12.7762C7.06286 12.8217 7.25221 12.9345 7.39254 13.0944L6.44333 13.8327C5.76753 13.3105 4.92002 12.9999 3.99996 12.9999C1.79084 12.9999 0 14.7908 0 16.9999C0 19.209 1.79084 20.9998 3.99996 20.9998C6.20908 20.9998 7.99993 19.209 7.99993 16.9999C7.99993 16.4352 7.88293 15.8979 7.67186 15.4108L8.33105 14.8981L9.0527 16.3414C9.56088 17.3578 10.5997 17.9998 11.736 17.9998H12.2638C13.4001 17.9998 14.4389 17.3578 14.9471 16.3415L17.5981 11.0395L18.1544 13.4501C16.8741 14.1171 15.9999 15.4564 15.9999 16.9999C15.9999 19.209 17.7907 20.9998 19.9998 20.9998C22.2089 20.9998 23.9998 19.209 23.9998 16.9999C23.9998 14.8254 22.2646 13.0561 20.1033 13.0012L19.8723 11.9999H20.5277C20.6829 11.9999 20.836 12.0361 20.9749 12.1055L22.5526 12.8943C23.0466 13.1413 23.6472 12.9411 23.8942 12.4471C24.1412 11.9532 23.941 11.3525 23.447 11.1055L21.8693 10.3167C21.4527 10.1084 20.9934 9.99994 20.5277 9.99994H19.4107L19.18 8.99995H19.9998C20.5521 8.99995 20.9998 8.55223 20.9998 7.99995C20.9998 7.44767 20.5521 6.99996 19.9998 6.99996H18.7184L18.332 5.3254C18.0179 3.96422 16.8058 3 15.4088 3H13.9999ZM18.6355 15.535L19.0254 17.2247C19.1496 17.7629 19.6865 18.0984 20.2247 17.9743C20.7628 17.8501 21.0984 17.3132 20.9742 16.775L20.5841 15.0847C21.4046 15.3348 22.0016 16.0976 22.0016 16.9999C22.0016 18.1054 21.1054 19.0016 19.9998 19.0016C18.8943 19.0016 17.9981 18.1054 17.9981 16.9999C17.9981 16.4215 18.2433 15.9005 18.6355 15.535ZM3.99996 14.9981C4.26723 14.9981 4.52226 15.0505 4.75535 15.1455L3.38601 16.2106C2.95007 16.5496 2.87154 17.1779 3.2106 17.6139C3.54967 18.0498 4.17794 18.1283 4.61388 17.7893L5.98293 16.7244C5.99532 16.8145 6.00173 16.9064 6.00173 16.9999C6.00173 18.1054 5.10551 19.0016 3.99996 19.0016C2.89442 19.0016 1.9982 18.1054 1.9982 16.9999C1.9982 15.8943 2.89442 14.9981 3.99996 14.9981ZM1.99998 9.14554C1.99998 8.70623 2.41284 8.38387 2.83904 8.49042L8.05999 9.79566C8.63653 9.9398 9.23416 9.97999 9.82481 9.91437L16.2834 9.19675L13.1582 15.447C12.9888 15.7858 12.6426 15.9998 12.2638 15.9998H11.736C11.3572 15.9998 11.0109 15.7858 10.8415 15.447L9.32423 12.4124C8.91666 11.5973 8.16066 11.0116 7.26955 10.8206L2.53377 9.80584C2.22242 9.73912 1.99998 9.46396 1.99998 9.14554Z" fill="#0F0F0F"/>
</svg>