<svg class="icon" viewBox="0 0 21 22" xmlns="http://www.w3.org/2000/svg">
    <path d="M12.9412 19.9616H8.05882C3.64029 19.9616 1.75245 17.9786 1.75245 13.3372V8.20869C1.75245 3.56736 3.64029 1.58432 8.05882 1.58432H12.9412C17.3597 1.58432 19.2475 3.56736 19.2475 8.20869V13.3372C19.2475 17.9786 17.3597 19.9616 12.9412 19.9616ZM8.05882 2.86646C4.30755 2.86646 2.97304 4.26826 2.97304 8.20869V13.3372C2.97304 17.2777 4.30755 18.6795 8.05882 18.6795H12.9412C16.6924 18.6795 18.027 17.2777 18.027 13.3372V8.20869C18.027 4.26826 16.6924 2.86646 12.9412 2.86646H8.05882Z"/>
    <path d="M10.5005 11.6958C10.3947 11.6958 10.2889 11.6702 10.1913 11.6104L5.87853 8.9948C5.58559 8.8153 5.48793 8.42211 5.65881 8.12294C5.82969 7.81523 6.20402 7.71266 6.48883 7.89216L10.4923 10.3282L14.4715 7.90925C14.7644 7.72975 15.1387 7.84087 15.3015 8.14004C15.4642 8.4392 15.3666 8.84094 15.0818 9.01189L10.8016 11.6104C10.7121 11.6616 10.6063 11.6958 10.5005 11.6958Z"/>
    <path d="M10.5 16.3461C10.1664 16.3461 9.8897 16.0555 9.8897 15.705V11.0551C9.8897 10.7047 10.1664 10.4141 10.5 10.4141C10.8336 10.4141 11.1103 10.7047 11.1103 11.0551V15.705C11.1103 16.0555 10.8336 16.3461 10.5 16.3461Z"/>
    <path d="M10.5002 16.5424C10.0282 16.5424 9.56445 16.4313 9.19014 16.2176L6.58618 14.6961C5.805 14.2431 5.20283 13.1576 5.20283 12.2173V9.3197C5.20283 8.38803 5.81314 7.30248 6.58618 6.84091L9.19014 5.31944C9.93877 4.88351 11.0616 4.88351 11.8103 5.31944L14.4142 6.84091C15.1954 7.29393 15.7976 8.37948 15.7976 9.3197V12.2173C15.7976 13.149 15.1872 14.2346 14.4142 14.6961L11.8103 16.2176C11.4359 16.4398 10.9721 16.5424 10.5002 16.5424ZM10.5002 6.28531C10.2316 6.28531 9.97123 6.3366 9.78408 6.44772L7.1802 7.96919C6.78148 8.19997 6.42342 8.84959 6.42342 9.3197V12.2173C6.42342 12.696 6.78148 13.3371 7.1802 13.5679L9.78408 15.0893C10.1584 15.3116 10.8419 15.3116 11.2162 15.0893L13.8202 13.5679C14.2189 13.3371 14.577 12.6875 14.577 12.2173V9.3197C14.577 8.84105 14.2189 8.19997 13.8202 7.96919L11.2162 6.44772C11.0291 6.3366 10.7687 6.28531 10.5002 6.28531Z"/>
</svg> 