<svg class="payments-button" viewBox="0 0 21 22" xmlns="http://www.w3.org/2000/svg">
    <path class= "payments-button-border" d="M9.48419 15.3364V17.0716C9.48419 18.5418 8.18221 19.7299 6.57917 19.7299C4.97613 19.7299 3.66602 18.5418 3.66602 17.0716V15.3364C3.66602 16.8066 4.96799 17.8494 6.57917 17.8494C8.18221 17.8494 9.48419 16.7981 9.48419 15.3364Z"/>
    <path class= "payments-button-border" d="M9.48302 12.9855C9.48302 13.4129 9.3691 13.8061 9.17381 14.148C8.69367 14.9771 7.70905 15.4985 6.56983 15.4985C5.43062 15.4985 4.446 14.9685 3.96591 14.148C3.77061 13.8061 3.65674 13.4129 3.65674 12.9855C3.65674 12.2504 3.98221 11.5922 4.503 11.1136C5.03192 10.6264 5.7561 10.3358 6.56169 10.3358C7.36728 10.3358 8.09152 10.6349 8.62044 11.1136C9.15753 11.5837 9.48302 12.2504 9.48302 12.9855Z" stroke="#9197B3"/>
    <path class= "payments-button-border" d="M9.48419 12.9855V15.3361C9.48419 16.8063 8.18221 17.8491 6.57917 17.8491C4.97613 17.8491 3.66602 16.7977 3.66602 15.3361V12.9855C3.66602 11.5153 4.96799 10.3272 6.57917 10.3272C7.38476 10.3272 8.109 10.6264 8.63792 11.105C9.1587 11.5837 9.48419 12.2504 9.48419 12.9855Z"/>
    <path class= "payments-button-border" d="M18.6373 10.3015V12.0624C18.6373 12.5325 18.2793 12.917 17.8236 12.9341H16.2286C15.3498 12.9341 14.5443 12.2589 14.471 11.3357C14.4222 10.7972 14.6174 10.2929 14.9592 9.94247C15.2603 9.61766 15.6754 9.42966 16.1311 9.42966H17.8236C18.2793 9.44675 18.6373 9.83135 18.6373 10.3015Z"/>
    <path class= "payments-button-border" d="M2.36279 9.89981V8.19029C2.36279 5.86535 3.6973 4.24131 5.7723 3.96779C5.98387 3.9336 6.20358 3.9165 6.43142 3.9165H13.7549C13.9665 3.9165 14.1699 3.92504 14.3652 3.95923C16.4647 4.21566 17.8236 5.84826 17.8236 8.19029V9.4297H16.131C15.6753 9.4297 15.2603 9.61774 14.9593 9.94255C14.6175 10.293 14.4222 10.7973 14.471 11.3358C14.5443 12.2589 15.3499 12.9342 16.2287 12.9342H17.8236V14.1736C17.8236 16.7379 16.1961 18.4474 13.7549 18.4474H11.7206"/>
</svg> 